<svg xmlns="http://www.w3.org/2000/svg" viewBox="0 0 320 200">
  <defs>
    <radialGradient id="glow" cx="50%" cy="42%" r="60%">
      <stop offset="0%" stop-color="#ffb64a" stop-opacity="0.55"/>
      <stop offset="55%" stop-color="#ffb64a" stop-opacity="0.12"/>
      <stop offset="100%" stop-color="#ffb64a" stop-opacity="0"/>
    </radialGradient>
    <linearGradient id="sky" x1="0" y1="0" x2="0" y2="1">
      <stop offset="0%" stop-color="#161b2e"/>
      <stop offset="100%" stop-color="#0a0c14"/>
    </linearGradient>
  </defs>
  <rect width="320" height="200" fill="url(#sky)"/>
  <circle cx="52" cy="30" r="1.6" fill="#e8e4d8" opacity="0.5"/>
  <circle cx="118" cy="18" r="1.2" fill="#e8e4d8" opacity="0.35"/>
  <circle cx="262" cy="26" r="1.6" fill="#e8e4d8" opacity="0.5"/>
  <circle cx="298" cy="58" r="1.2" fill="#e8e4d8" opacity="0.35"/>
  <circle cx="200" cy="12" r="1.2" fill="#e8e4d8" opacity="0.4"/>
  <!-- dark hills -->
  <path d="M0 150 Q60 128 120 146 T320 140 V200 H0 Z" fill="#141827"/>
  <path d="M0 168 Q90 150 180 166 T320 162 V200 H0 Z" fill="#0e1120"/>
  <!-- unlit lanterns on posts -->
  <g stroke="#2c3140" stroke-width="4" fill="#1c2030">
    <line x1="58" y1="168" x2="58" y2="128"/><rect x="49" y="112" width="18" height="20" rx="3"/>
    <line x1="262" y1="164" x2="262" y2="124"/><rect x="253" y="108" width="18" height="20" rx="3"/>
  </g>
  <!-- glow + Wick -->
  <circle cx="160" cy="104" r="92" fill="url(#glow)"/>
  <path d="M160 62 Q186 96 178 122 Q172 142 160 144 Q148 142 142 122 Q134 96 160 62 Z" fill="#ffb64a"/>
  <path d="M160 92 Q170 108 166 122 Q163 132 160 133 Q157 132 154 122 Q150 108 160 92 Z" fill="#fff3d8"/>
  <circle cx="153" cy="112" r="3.4" fill="#20242e"/>
  <circle cx="167" cy="112" r="3.4" fill="#20242e"/>
  <!-- title -->
  <text x="160" y="182" text-anchor="middle" font-family="ui-monospace, Menlo, monospace" font-size="20" font-weight="800" letter-spacing="6" fill="#ffb64a">EMBERWICK</text>
</svg>
