<svg xmlns="http://www.w3.org/2000/svg" viewBox="0 0 320 200">
  <defs>
    <linearGradient id="sky" x1="0" y1="0" x2="0" y2="1">
      <stop offset="0" stop-color="#1b2a4a"/>
      <stop offset="1" stop-color="#0b1020"/>
    </linearGradient>
  </defs>
  <rect width="320" height="200" fill="url(#sky)"/>
  <circle cx="262" cy="42" r="20" fill="#ffd042" opacity="0.9"/>
  <g fill="#141a2e">
    <rect x="18" y="120" width="34" height="80"/>
    <rect x="70" y="90" width="40" height="110"/>
    <rect x="128" y="130" width="30" height="70"/>
    <rect x="240" y="104" width="44" height="96"/>
  </g>
  <g fill="#7ee787">
    <rect x="40" y="150" width="70" height="12" rx="4"/>
    <rect x="140" y="112" width="64" height="12" rx="4"/>
    <rect x="226" y="74" width="58" height="12" rx="4"/>
  </g>
  <g>
    <rect x="62" y="128" width="18" height="18" rx="4" fill="#4aa8ff"/>
    <rect x="66" y="132" width="4" height="4" fill="#0b1020"/>
    <rect x="73" y="132" width="4" height="4" fill="#0b1020"/>
  </g>
  <g>
    <rect x="158" y="90" width="18" height="18" rx="4" fill="#ff5a5f"/>
    <rect x="162" y="94" width="4" height="4" fill="#0b1020"/>
    <rect x="169" y="94" width="4" height="4" fill="#0b1020"/>
  </g>
  <circle cx="196" cy="100" r="6" fill="#ffd042"/>
  <circle cx="256" cy="62" r="6" fill="#ffd042"/>
</svg>
