<svg xmlns="http://www.w3.org/2000/svg" viewBox="0 0 320 200">
  <defs>
    <linearGradient id="dusk" x1="0" y1="0" x2="0" y2="1">
      <stop offset="0" stop-color="#2a1b4a"/>
      <stop offset="1" stop-color="#100b20"/>
    </linearGradient>
  </defs>
  <rect width="320" height="200" fill="url(#dusk)"/>
  <circle cx="160" cy="70" r="34" fill="#ff9e64" opacity="0.85"/>
  <path d="M110 200 L150 80 L170 80 L210 200 Z" fill="#1c1530"/>
  <g stroke="#ffd042" stroke-width="4" stroke-dasharray="14 12">
    <line x1="160" y1="86" x2="160" y2="200"/>
  </g>
  <g>
    <rect x="132" y="138" width="26" height="44" rx="8" fill="#ff5a5f"/>
    <rect x="136" y="146" width="18" height="10" rx="3" fill="#0b1020"/>
    <rect x="129" y="144" width="5" height="12" rx="2" fill="#101216"/>
    <rect x="156" y="144" width="5" height="12" rx="2" fill="#101216"/>
    <rect x="129" y="166" width="5" height="12" rx="2" fill="#101216"/>
    <rect x="156" y="166" width="5" height="12" rx="2" fill="#101216"/>
  </g>
  <g>
    <rect x="168" y="102" width="20" height="34" rx="6" fill="#4aa8ff"/>
    <rect x="171" y="108" width="14" height="8" rx="2" fill="#0b1020"/>
  </g>
  <g fill="#7ee787">
    <rect x="34" y="120" width="10" height="26" rx="2"/>
    <rect x="276" y="120" width="10" height="26" rx="2"/>
    <rect x="30" y="112" width="18" height="10" rx="3"/>
    <rect x="272" y="112" width="18" height="10" rx="3"/>
  </g>
</svg>
